<svg width="1200" height="640" viewBox="0 0 1200 640" fill="none" xmlns="http://www.w3.org/2000/svg">
  <rect width="1200" height="640" rx="32" fill="#0F1724"/>
  <rect x="34" y="34" width="1132" height="572" rx="28" fill="url(#bg)"/>
  <rect x="82" y="108" width="436" height="424" rx="24" fill="#FFF8F0"/>
  <rect x="568" y="108" width="550" height="424" rx="24" fill="#171C24"/>
  <rect x="114" y="140" width="120" height="36" rx="18" fill="#EAF6EE"/>
  <text x="174" y="163" text-anchor="middle" font-family="Arial, sans-serif" font-size="18" font-weight="700" fill="#4F8A66">📍 国内漫游</text>
  <text x="114" y="220" font-family="Arial, sans-serif" font-size="38" font-weight="700" fill="#1F2937">Postcard Travel</text>
  <text x="114" y="266" font-family="Arial, sans-serif" font-size="22" fill="#667085">Landmark name, address, navigation,</text>
  <text x="114" y="300" font-family="Arial, sans-serif" font-size="22" fill="#667085">and AI travel storytelling.</text>
  <rect x="114" y="338" width="372" height="116" rx="20" fill="#FFFDF8" stroke="#E8DDCC"/>
  <text x="138" y="380" font-family="Arial, sans-serif" font-size="20" font-weight="700" fill="#202534">故宫博物院</text>
  <text x="138" y="414" font-family="Arial, sans-serif" font-size="17" fill="#667085">北京市东城区景山前街4号</text>
  <text x="138" y="448" font-family="Arial, sans-serif" font-size="17" fill="#4A5567">AI 导览介绍 + 地图导航 + 打卡记录</text>
  <rect x="600" y="140" width="132" height="36" rx="18" fill="#00A1D6"/>
  <text x="666" y="163" text-anchor="middle" font-family="Arial, sans-serif" font-size="18" font-weight="700" fill="white">🎬 圣地巡礼</text>
  <text x="600" y="220" font-family="Arial, sans-serif" font-size="38" font-weight="700" fill="#F8FAFC">Film Pilgrimage</text>
  <text x="600" y="266" font-family="Arial, sans-serif" font-size="22" fill="#A7AFBF">Anime title, matched frame,</text>
  <text x="600" y="300" font-family="Arial, sans-serif" font-size="22" fill="#A7AFBF">pilgrimage metadata, and commentary.</text>
  <rect x="600" y="336" width="470" height="142" rx="24" fill="#1D2028" stroke="#313744"/>
  <rect x="624" y="360" width="182" height="94" rx="16" fill="#F8FAFC"/>
  <rect x="830" y="360" width="216" height="94" rx="16" fill="#E5EAF4"/>
  <text x="624" y="505" font-family="Arial, sans-serif" font-size="18" fill="#E7EBF3">Original frame + AI commentary + navigation</text>
  <text x="82" y="76" font-family="Arial, sans-serif" font-size="24" font-weight="700" fill="#E2E8F0">LiveCamera-LBS</text>
  <defs>
    <linearGradient id="bg" x1="34" y1="34" x2="1166" y2="606" gradientUnits="userSpaceOnUse">
      <stop stop-color="#101A2B"/>
      <stop offset="1" stop-color="#15273D"/>
    </linearGradient>
  </defs>
</svg>
